# Made in Blockbench 4.7.2
mtllib SandPathLine.mtl

o cube
v 0.25 0.9375 0.3125
v 0.25 0.9375 0.1875
v 0.25 0.875 0.3125
v 0.25 0.875 0.1875
v 0.1875 0.9375 0.1875
v 0.1875 0.9375 0.3125
v 0.1875 0.875 0.1875
v 0.1875 0.875 0.3125
vt 0.140625 0.265625
vt 0.15625 0.265625
vt 0.15625 0.25
vt 0.140625 0.25
vt 0.109375 0.265625
vt 0.140625 0.265625
vt 0.140625 0.25
vt 0.109375 0.25
vt 0.1875 0.265625
vt 0.203125 0.265625
vt 0.203125 0.25
vt 0.1875 0.25
vt 0.15625 0.265625
vt 0.1875 0.265625
vt 0.1875 0.25
vt 0.15625 0.25
vt 0.15625 0.265625
vt 0.140625 0.265625
vt 0.140625 0.296875
vt 0.15625 0.296875
vt 0.171875 0.296875
vt 0.15625 0.296875
vt 0.15625 0.265625
vt 0.171875 0.265625
vn 0 0 -1
vn 1 0 0
vn 0 0 1
vn -1 0 0
vn 0 1 0
vn 0 -1 0
usemtl m_d18876ac-b0ab-d12d-19f0-5e0f82747ef1
f 4/4/1 7/3/1 5/2/1 2/1/1
f 3/8/2 4/7/2 2/6/2 1/5/2
f 8/12/3 3/11/3 1/10/3 6/9/3
f 7/16/4 8/15/4 6/14/4 5/13/4
f 6/20/5 1/19/5 2/18/5 5/17/5
f 7/24/6 4/23/6 3/22/6 8/21/6
o cube
v 0.5 1 0.5
v 0.5 1 -0.5
v 0.5 0.875 0.5
v 0.5 0.875 -0.5
v 0.3125 1 -0.5
v 0.3125 1 0.5
v 0.3125 0.875 -0.5
v 0.3125 0.875 0.5
vt 0 1
vt 0.18437500000000007 1
vt 0.18437500000000007 0.875
vt 0 0.875
vt 0 1
vt 0.9999999999999998 1
vt 0.9999999999999998 0.8125
vt 0 0.8125
vt 0.8125 1
vt 0.996875 1
vt 0.996875 0.88125
vt 0.8125 0.88125
vt 0 1
vt 0.9999999999999998 1
vt 0.9999999999999998 0.8125
vt 0 0.8125
vt 0.815625 1
vt 1 1
vt 1 0
vt 0.815625 0
vt 0 1
vt 0.18437499999999996 1
vt 0.18437499999999996 0
vt 0 0
vn 0 0 -1
vn 1 0 0
vn 0 0 1
vn -1 0 0
vn 0 1 0
vn 0 -1 0
usemtl m_8b6b0051-3de2-2a0d-8ef5-d0fc2c0a5c62
f 12/28/7 15/27/7 13/26/7 10/25/7
f 11/32/8 12/31/8 10/30/8 9/29/8
f 16/36/9 11/35/9 9/34/9 14/33/9
f 15/40/10 16/39/10 14/38/10 13/37/10
f 14/44/11 9/43/11 10/42/11 13/41/11
f 15/48/12 12/47/12 11/46/12 16/45/12
o cube
v -0.3125 1 0.5
v -0.3125 1 -0.5
v -0.3125 0.875 0.5
v -0.3125 0.875 -0.5
v -0.5 1 -0.5
v -0.5 1 0.5
v -0.5 0.875 -0.5
v -0.5 0.875 0.5
vt 0.8125 1
vt 1 1
vt 1 0.875
vt 0.8125 0.875
vt 0 1
vt 1 1
vt 1 0.875
vt 0 0.875
vt 0 1
vt 0.18437500000000004 1
vt 0.18437500000000004 0.875
vt 0 0.875
vt 0 1
vt 1 1
vt 1 0.875
vt 0 0.875
vt 0 1
vt 0.1875 1
vt 0.1875 0
vt 0 0
vt 0.815625 1
vt 1 1
vt 1 0
vt 0.815625 0
vn 0 0 -1
vn 1 0 0
vn 0 0 1
vn -1 0 0
vn 0 1 0
vn 0 -1 0
usemtl m_8b6b0051-3de2-2a0d-8ef5-d0fc2c0a5c62
f 20/52/13 23/51/13 21/50/13 18/49/13
f 19/56/14 20/55/14 18/54/14 17/53/14
f 24/60/15 19/59/15 17/58/15 22/57/15
f 23/64/16 24/63/16 22/62/16 21/61/16
f 22/68/17 17/67/17 18/66/17 21/65/17
f 23/72/18 20/71/18 19/70/18 24/69/18
o cube
v 0.3125 1 -0.25
v 0.3125 1 -0.375
v 0.3125 0.875 -0.25
v 0.3125 0.875 -0.375
v 0.296875 1 -0.375
v 0.296875 1 -0.25
v 0.296875 0.875 -0.375
v 0.296875 0.875 -0.25
vt 0 1
vt 0.06015625 1
vt 0.06015625 0.9375
vt 0 0.9375
vt 0 1
vt 0.06249999999999999 1
vt 0.06249999999999999 0.9375
vt 0 0.9375
vt 0 1
vt 0.06015625 1
vt 0.06015625 0.9375
vt 0 0.9375
vt 0 1
vt 0.056249999999999994 1
vt 0.056249999999999994 0.9375
vt 0 0.9375
vt 0.75 0.875
vt 0.81015625 0.875
vt 0.81015625 0.75
vt 0.75 0.75
vt 0 1
vt 0.06015625 1
vt 0.06015625 0.9375
vt 0 0.9375
vn 0 0 -1
vn 1 0 0
vn 0 0 1
vn -1 0 0
vn 0 1 0
vn 0 -1 0
usemtl m_8b6b0051-3de2-2a0d-8ef5-d0fc2c0a5c62
f 28/76/19 31/75/19 29/74/19 26/73/19
f 27/80/20 28/79/20 26/78/20 25/77/20
f 32/84/21 27/83/21 25/82/21 30/81/21
f 31/88/22 32/87/22 30/86/22 29/85/22
f 30/92/23 25/91/23 26/90/23 29/89/23
f 31/96/24 28/95/24 27/94/24 32/93/24
o cube
v 0.3125 1 0.5
v 0.3125 1 0.3125
v 0.3125 0.875 0.5
v 0.3125 0.875 0.3125
v 0.1875 1 0.3125
v 0.1875 1 0.5
v 0.1875 0.875 0.3125
v 0.1875 0.875 0.5
vt 0 1
vt 0.12500000000000003 1
vt 0.12500000000000003 0.9375
vt 0 0.9375
vt 0 1
vt 0.046875 1
vt 0.046875 0.96875
vt 0 0.96875
vt 0.6875 1
vt 0.8125 1
vt 0.8125 0.875
vt 0.6875 0.875
vt 0 1
vt 0.18437500000000004 1
vt 0.18437500000000004 0.875
vt 0 0.875
vt 0.6875 0.1875
vt 0.8125 0.1875
vt 0.8125 0.0031250000000000444
vt 0.6875 0.0031250000000000444
vt 0 1
vt 0.03125 1
vt 0.03125 0.953125
vt 0 0.953125
vn 0 0 -1
vn 1 0 0
vn 0 0 1
vn -1 0 0
vn 0 1 0
vn 0 -1 0
usemtl m_8b6b0051-3de2-2a0d-8ef5-d0fc2c0a5c62
f 36/100/25 39/99/25 37/98/25 34/97/25
f 35/104/26 36/103/26 34/102/26 33/101/26
f 40/108/27 35/107/27 33/106/27 38/105/27
f 39/112/28 40/111/28 38/110/28 37/109/28
f 38/116/29 33/115/29 34/114/29 37/113/29
f 39/120/30 36/119/30 35/118/30 40/117/30
o cube
v -0.1875 1 0.5
v -0.1875 1 0.375
v -0.1875 0.875 0.5
v -0.1875 0.875 0.375
v -0.3125 1 0.375
v -0.3125 1 0.5
v -0.3125 0.875 0.375
v -0.3125 0.875 0.5
vt 0 1
vt 0.125 1
vt 0.125 0.875
vt 0 0.875
vt 0.125 0.875
vt 0.25 0.875
vt 0.25 0.75
vt 0.125 0.75
vt 0.1875 1
vt 0.3125 1
vt 0.3125 0.875
vt 0.1875 0.875
vt 0 1
vt 0.03125 1
vt 0.03125 0.96875
vt 0 0.96875
vt 0.1875 0.125
vt 0.3125 0.125
vt 0.3125 0
vt 0.1875 0
vt 0 1
vt 0.03125 1
vt 0.03125 0.96875
vt 0 0.96875
vn 0 0 -1
vn 1 0 0
vn 0 0 1
vn -1 0 0
vn 0 1 0
vn 0 -1 0
usemtl m_8b6b0051-3de2-2a0d-8ef5-d0fc2c0a5c62
f 44/124/31 47/123/31 45/122/31 42/121/31
f 43/128/32 44/127/32 42/126/32 41/125/32
f 48/132/33 43/131/33 41/130/33 46/129/33
f 47/136/34 48/135/34 46/134/34 45/133/34
f 46/140/35 41/139/35 42/138/35 45/137/35
f 47/144/36 44/143/36 43/142/36 48/141/36
o cube
v -0.1875 1 -0.4375
v -0.1875 1 -0.5
v -0.1875 0.875 -0.4375
v -0.1875 0.875 -0.5
v -0.3125 1 -0.5
v -0.3125 1 -0.4375
v -0.3125 0.875 -0.5
v -0.3125 0.875 -0.4375
vt 0.6875 1
vt 0.8125 1
vt 0.8125 0.875
vt 0.6875 0.875
vt 0.125 0.9375
vt 0.18437499999999998 0.9375
vt 0.18437499999999998 0.8125
vt 0.125 0.8125
vt 0 1
vt 0.125 1
vt 0.125 0.875
vt 0 0.875
vt 0 1
vt 0.015625 1
vt 0.015625 0.96875
vt 0 0.96875
vt 0.1875 1
vt 0.3125 1
vt 0.3125 0.940625
vt 0.1875 0.940625
vt 0 1
vt 0.03125 1
vt 0.03125 0.984375
vt 0 0.984375
vn 0 0 -1
vn 1 0 0
vn 0 0 1
vn -1 0 0
vn 0 1 0
vn 0 -1 0
usemtl m_8b6b0051-3de2-2a0d-8ef5-d0fc2c0a5c62
f 52/148/37 55/147/37 53/146/37 50/145/37
f 51/152/38 52/151/38 50/150/38 49/149/38
f 56/156/39 51/155/39 49/154/39 54/153/39
f 55/160/40 56/159/40 54/158/40 53/157/40
f 54/164/41 49/163/41 50/162/41 53/161/41
f 55/168/42 52/167/42 51/166/42 56/165/42
o cube
v -0.25 1 0
v -0.25 1 -0.25
v -0.25 0.875 0
v -0.25 0.875 -0.25
v -0.3125 1 -0.25
v -0.3125 1 0
v -0.3125 0.875 -0.25
v -0.3125 0.875 0
vt 0 0.9375
vt 0.05937499999999999 0.9375
vt 0.05937499999999999 0.875
vt 0 0.875
vt 0.0625 1
vt 0.3125 1
vt 0.3125 0.96875
vt 0.0625 0.96875
vt 0 0.9375
vt 0.015625 0.9375
vt 0.015625 0.90625
vt 0 0.90625
vt 0 1
vt 0.0625 1
vt 0.0625 0.96875
vt 0 0.96875
vt 0.1875 0.75
vt 0.24687499999999998 0.75
vt 0.24687499999999998 0.5
vt 0.1875 0.5
vt 0 1
vt 0.015625 1
vt 0.015625 0.9375
vt 0 0.9375
vn 0 0 -1
vn 1 0 0
vn 0 0 1
vn -1 0 0
vn 0 1 0
vn 0 -1 0
usemtl m_8b6b0051-3de2-2a0d-8ef5-d0fc2c0a5c62
f 60/172/43 63/171/43 61/170/43 58/169/43
f 59/176/44 60/175/44 58/174/44 57/173/44
f 64/180/45 59/179/45 57/178/45 62/177/45
f 63/184/46 64/183/46 62/182/46 61/181/46
f 62/188/47 57/187/47 58/186/47 61/185/47
f 63/192/48 60/191/48 59/190/48 64/189/48
o cube
v -0.28125 1 0.25
v -0.28125 1 0
v -0.28125 0.875 0.25
v -0.28125 0.875 0
v -0.3125 1 0
v -0.3125 1 0.25
v -0.3125 0.875 0
v -0.3125 0.875 0.25
vt 0 1
vt 0.05781249999999995 1
vt 0.05781249999999995 0.9375
vt 0 0.9375
vt 0 1
vt 0.25000000000000006 1
vt 0.25000000000000006 0.9625
vt 0 0.9625
vt 0 0.9375
vt 0.0078125 0.9375
vt 0.0078125 0.90625
vt 0 0.90625
vt 0 1
vt 0.0625 1
vt 0.0625 0.96875
vt 0 0.96875
vt 0.1875 0.5
vt 0.2140625 0.5
vt 0.2140625 0.2499999999999999
vt 0.1875 0.2499999999999999
vt 0 1
vt 0.0078125 1
vt 0.0078125 0.9375
vt 0 0.9375
vn 0 0 -1
vn 1 0 0
vn 0 0 1
vn -1 0 0
vn 0 1 0
vn 0 -1 0
usemtl m_8b6b0051-3de2-2a0d-8ef5-d0fc2c0a5c62
f 68/196/49 71/195/49 69/194/49 66/193/49
f 67/200/50 68/199/50 66/198/50 65/197/50
f 72/204/51 67/203/51 65/202/51 70/201/51
f 71/208/52 72/207/52 70/206/52 69/205/52
f 70/212/53 65/211/53 66/210/53 69/209/53
f 71/216/54 68/215/54 67/214/54 72/213/54
o cube
v 0.3125 1 -0.375
v 0.3125 1 -0.5
v 0.3125 0.875 -0.375
v 0.3125 0.875 -0.5
v 0.1875 1 -0.5
v 0.1875 1 -0.375
v 0.1875 0.875 -0.5
v 0.1875 0.875 -0.375
vt 0.1875 1
vt 0.3125 1
vt 0.3125 0.875
vt 0.1875 0.875
vt 0.4375 1
vt 0.5625 1
vt 0.5625 0.875
vt 0.4375 0.875
vt 0.3125 1
vt 0.4375 1
vt 0.4375 0.875
vt 0.3125 0.875
vt 0.6875 1
vt 0.8125 1
vt 0.8125 0.875
vt 0.6875 0.875
vt 0 1
vt 0.0625 1
vt 0.0625 0.9375
vt 0 0.9375
vn 0 0 -1
vn 0 0 1
vn -1 0 0
vn 0 1 0
vn 0 -1 0
usemtl m_8b6b0051-3de2-2a0d-8ef5-d0fc2c0a5c62
f 76/220/55 79/219/55 77/218/55 74/217/55
f 80/224/56 75/223/56 73/222/56 78/221/56
f 79/228/57 80/227/57 78/226/57 77/225/57
f 78/232/58 73/231/58 74/230/58 77/229/58
f 79/236/59 76/235/59 75/234/59 80/233/59
o cube
v 0.3125 1 -0.125
v 0.3125 1 -0.25
v 0.3125 0.875 -0.125
v 0.3125 0.875 -0.25
v 0.265625 1 -0.25
v 0.265625 1 -0.125
v 0.265625 0.875 -0.25
v 0.265625 0.875 -0.125
vt 0 0.9375
vt 0.061718749999999996 0.9375
vt 0.061718749999999996 0.875
vt 0 0.875
vt 0 0.9375
vt 0.06249999999999999 0.9375
vt 0.06249999999999999 0.875
vt 0 0.875
vt 0 0.9375
vt 0.061718749999999996 0.9375
vt 0.061718749999999996 0.875
vt 0 0.875
vt 0 1
vt 0.11875 1
vt 0.11875 0.9375
vt 0 0.9375
vt 0.75 0.75
vt 0.81171875 0.75
vt 0.81171875 0.625
vt 0.75 0.625
vt 0 1
vt 0.01171875 1
vt 0.01171875 0.96875
vt 0 0.96875
vn 0 0 -1
vn 1 0 0
vn 0 0 1
vn -1 0 0
vn 0 1 0
vn 0 -1 0
usemtl m_8b6b0051-3de2-2a0d-8ef5-d0fc2c0a5c62
f 84/240/60 87/239/60 85/238/60 82/237/60
f 83/244/61 84/243/61 82/242/61 81/241/61
f 88/248/62 83/247/62 81/246/62 86/245/62
f 87/252/63 88/251/63 86/250/63 85/249/63
f 86/256/64 81/255/64 82/254/64 85/253/64
f 87/260/65 84/259/65 83/258/65 88/257/65
o cube
v 0.3125 1 0.0625
v 0.3125 1 -0.125
v 0.3125 0.875 0.0625
v 0.3125 0.875 -0.125
v 0.296875 1 -0.125
v 0.296875 1 0.0625
v 0.296875 0.875 -0.125
v 0.296875 0.875 0.0625
vt 0 1
vt 0.00390625 1
vt 0.00390625 0.96875
vt 0 0.96875
vt 0 1
vt 0.046875 1
vt 0.046875 0.96875
vt 0 0.96875
vt 0 1
vt 0.00390625 1
vt 0.00390625 0.96875
vt 0 0.96875
vt 0 0.9375
vt 0.18437500000000004 0.9375
vt 0.18437500000000004 0.875
vt 0 0.875
vt 0.81015625 0.43437500000000007
vt 0.75 0.43437500000000007
vt 0.75 0.625
vt 0.81015625 0.625
vt 0 1
vt 0.00390625 1
vt 0.00390625 0.953125
vt 0 0.953125
vn 0 0 -1
vn 1 0 0
vn 0 0 1
vn -1 0 0
vn 0 1 0
vn 0 -1 0
usemtl m_8b6b0051-3de2-2a0d-8ef5-d0fc2c0a5c62
f 92/264/66 95/263/66 93/262/66 90/261/66
f 91/268/67 92/267/67 90/266/67 89/265/67
f 96/272/68 91/271/68 89/270/68 94/269/68
f 95/276/69 96/275/69 94/274/69 93/273/69
f 94/280/70 89/279/70 90/278/70 93/277/70
f 95/284/71 92/283/71 91/282/71 96/281/71
o cube
v 0.3125 1 0.3125
v 0.3125 1 0.1875
v 0.3125 0.875 0.3125
v 0.3125 0.875 0.1875
v 0.25 1 0.1875
v 0.25 1 0.3125
v 0.25 0.875 0.1875
v 0.25 0.875 0.3125
vt 0 0.9375
vt 0.05937499999999999 0.9375
vt 0.05937499999999999 0.875
vt 0 0.875
vt 0 1
vt 0.03125 1
vt 0.03125 0.96875
vt 0 0.96875
vt 0 1
vt 0.015625 1
vt 0.015625 0.96875
vt 0 0.96875
vt 0.0625 0.875
vt 0.18125 0.875
vt 0.18125 0.8125
vt 0.0625 0.8125
vt 0.75 0.3125
vt 0.809375 0.3125
vt 0.809375 0.1875
vt 0.75 0.1875
vt 0 1
vt 0.015625 1
vt 0.015625 0.96875
vt 0 0.96875
vn 0 0 -1
vn 1 0 0
vn 0 0 1
vn -1 0 0
vn 0 1 0
vn 0 -1 0
usemtl m_8b6b0051-3de2-2a0d-8ef5-d0fc2c0a5c62
f 100/288/72 103/287/72 101/286/72 98/285/72
f 99/292/73 100/291/73 98/290/73 97/289/73
f 104/296/74 99/295/74 97/294/74 102/293/74
f 103/300/75 104/299/75 102/298/75 101/297/75
f 102/304/76 97/303/76 98/302/76 101/301/76
f 103/308/77 100/307/77 99/306/77 104/305/77
o cube
v 0.5 0.875 0.5
v 0.5 0.875 -0.5
v 0.5 0 0.5
v 0.5 0 -0.5
v -0.5 0.875 -0.5
v -0.5 0.875 0.5
v -0.5 0 -0.5
v -0.5 0 0.5
vt 0 0.875
vt 1 0.875
vt 1 0
vt 0 0
vt 0 0.875
vt 1 0.875
vt 1 0
vt 0 0
vt 0 0.875
vt 1 0.875
vt 1 0
vt 0 0
vt 0 0.875
vt 1 0.875
vt 1 0
vt 0 0
vt 0 1
vt 1 1
vt 1 0
vt 0 0
vt 0 1
vt 1 1
vt 1 0
vt 0 0
vn 0 0 -1
vn 1 0 0
vn 0 0 1
vn -1 0 0
vn 0 1 0
vn 0 -1 0
usemtl m_8b6b0051-3de2-2a0d-8ef5-d0fc2c0a5c62
f 108/312/78 111/311/78 109/310/78 106/309/78
f 107/316/79 108/315/79 106/314/79 105/313/79
f 112/320/80 107/319/80 105/318/80 110/317/80
f 111/324/81 112/323/81 110/322/81 109/321/81
f 110/328/82 105/327/82 106/326/82 109/325/82
f 111/332/83 108/331/83 107/330/83 112/329/83
o cube
v 0.1875 0.9375 0.5
v 0.1875 0.9375 -0.5
v 0.1875 0.875 0.5
v 0.1875 0.875 -0.5
v -0.1875 0.9375 -0.5
v -0.1875 0.9375 0.5
v -0.1875 0.875 -0.5
v -0.1875 0.875 0.5
vt 0.3125 1
vt 0.6874999999999999 1
vt 0.6874999999999999 0.940625
vt 0.3125 0.940625
vt 0 1
vt 0.046875 1
vt 0.046875 0.984375
vt 0 0.984375
vt 0.3125 1
vt 0.6875 1
vt 0.6875 0.9390625
vt 0.3125 0.9390625
vt 0 1
vt 0.046875 1
vt 0.046875 0.984375
vt 0 0.984375
vt 0.3125 1
vt 0.6875 1
vt 0.6875 0.0015625000000000222
vt 0.3125 0.0015625000000000222
vt 0 1
vt 0.09375 1
vt 0.09375 0.953125
vt 0 0.953125
vn 0 0 -1
vn 1 0 0
vn 0 0 1
vn -1 0 0
vn 0 1 0
vn 0 -1 0
usemtl m_8b6b0051-3de2-2a0d-8ef5-d0fc2c0a5c62
f 116/336/84 119/335/84 117/334/84 114/333/84
f 115/340/85 116/339/85 114/338/85 113/337/85
f 120/344/86 115/343/86 113/342/86 118/341/86
f 119/348/87 120/347/87 118/346/87 117/345/87
usemtl m_d18876ac-b0ab-d12d-19f0-5e0f82747ef1
f 118/352/88 113/351/88 114/350/88 117/349/88
usemtl m_8b6b0051-3de2-2a0d-8ef5-d0fc2c0a5c62
f 119/356/89 116/355/89 115/354/89 120/353/89
o cube
v -0.1875 0.9375 0.375
v -0.1875 0.9375 0.25
v -0.1875 0.875 0.375
v -0.1875 0.875 0.25
v -0.3125 0.9375 0.25
v -0.3125 0.9375 0.375
v -0.3125 0.875 0.25
v -0.3125 0.875 0.375
vt 0 1
vt 0.03125 1
vt 0.03125 0.984375
vt 0 0.984375
vt 0 1
vt 0.03125 1
vt 0.03125 0.984375
vt 0 0.984375
vt 0 1
vt 0.03125 1
vt 0.03125 0.984375
vt 0 0.984375
vt 0 1
vt 0.03125 1
vt 0.03125 0.984375
vt 0 0.984375
vt 0.1875 0.25
vt 0.3125 0.25
vt 0.3125 0.125
vt 0.1875 0.125
vt 0 1
vt 0.03125 1
vt 0.03125 0.96875
vt 0 0.96875
vn 0 0 -1
vn 1 0 0
vn 0 0 1
vn -1 0 0
vn 0 1 0
vn 0 -1 0
usemtl m_8b6b0051-3de2-2a0d-8ef5-d0fc2c0a5c62
f 124/360/90 127/359/90 125/358/90 122/357/90
f 123/364/91 124/363/91 122/362/91 121/361/91
f 128/368/92 123/367/92 121/366/92 126/365/92
f 127/372/93 128/371/93 126/370/93 125/369/93
usemtl m_d18876ac-b0ab-d12d-19f0-5e0f82747ef1
f 126/376/94 121/375/94 122/374/94 125/373/94
usemtl m_8b6b0051-3de2-2a0d-8ef5-d0fc2c0a5c62
f 127/380/95 124/379/95 123/378/95 128/377/95
o cube
v -0.1875 0.9375 0.25
v -0.1875 0.9375 -0.4375
v -0.1875 0.875 0.25
v -0.1875 0.875 -0.4375
v -0.3125 0.9375 -0.4375
v -0.3125 0.9375 0.25
v -0.3125 0.875 -0.4375
v -0.3125 0.875 0.25
vt 0 1
vt 0.03125 1
vt 0.03125 0.984375
vt 0 0.984375
vt 0 1
vt 0.171875 1
vt 0.171875 0.984375
vt 0 0.984375
vt 0 1
vt 0.03125 1
vt 0.03125 0.984375
vt 0 0.984375
vt 0 1
vt 0.171875 1
vt 0.171875 0.984375
vt 0 0.984375
vt 0.1875 0.9375
vt 0.3125 0.9375
vt 0.3125 0.25312500000000004
vt 0.1875 0.25312500000000004
vt 0 1
vt 0.03125 1
vt 0.03125 0.828125
vt 0 0.828125
vn 0 0 -1
vn 1 0 0
vn 0 0 1
vn -1 0 0
vn 0 1 0
vn 0 -1 0
usemtl m_8b6b0051-3de2-2a0d-8ef5-d0fc2c0a5c62
f 132/384/96 135/383/96 133/382/96 130/381/96
f 131/388/97 132/387/97 130/386/97 129/385/97
f 136/392/98 131/391/98 129/390/98 134/389/98
f 135/396/99 136/395/99 134/394/99 133/393/99
usemtl m_d18876ac-b0ab-d12d-19f0-5e0f82747ef1
f 134/400/100 129/399/100 130/398/100 133/397/100
usemtl m_8b6b0051-3de2-2a0d-8ef5-d0fc2c0a5c62
f 135/404/101 132/403/101 131/402/101 136/401/101
o cube
v 0.3125 0.9375 0.1875
v 0.3125 0.9375 -0.375
v 0.3125 0.875 0.1875
v 0.3125 0.875 -0.375
v 0.1875 0.9375 -0.375
v 0.1875 0.9375 0.1875
v 0.1875 0.875 -0.375
v 0.1875 0.875 0.1875
vt 0 1
vt 0.03125 1
vt 0.03125 0.984375
vt 0 0.984375
vt 0 1
vt 0.140625 1
vt 0.140625 0.984375
vt 0 0.984375
vt 0 1
vt 0.03125 1
vt 0.03125 0.984375
vt 0 0.984375
vt 0 1
vt 0.140625 1
vt 0.140625 0.984375
vt 0 0.984375
vt 0.6875 0.875
vt 0.8125 0.875
vt 0.8125 0.31562500000000004
vt 0.6875 0.31562500000000004
vt 0 1
vt 0.03125 1
vt 0.03125 0.859375
vt 0 0.859375
vn 0 0 -1
vn 1 0 0
vn 0 0 1
vn -1 0 0
vn 0 1 0
vn 0 -1 0
usemtl m_8b6b0051-3de2-2a0d-8ef5-d0fc2c0a5c62
f 140/408/102 143/407/102 141/406/102 138/405/102
f 139/412/103 140/411/103 138/410/103 137/409/103
f 144/416/104 139/415/104 137/414/104 142/413/104
f 143/420/105 144/419/105 142/418/105 141/417/105
usemtl m_d18876ac-b0ab-d12d-19f0-5e0f82747ef1
f 142/424/106 137/423/106 138/422/106 141/421/106
usemtl m_8b6b0051-3de2-2a0d-8ef5-d0fc2c0a5c62
f 143/428/107 140/427/107 139/426/107 144/425/107